<?xml version="1.0" encoding="UTF-8"?>
<!DOCTYPE svg PUBLIC "-//W3C//DTD SVG 1.1//EN" "http://www.w3.org/Graphics/SVG/1.1/DTD/svg11.dtd">
<svg xmlns="http://www.w3.org/2000/svg" version="1.1" width="2048px" height="2048px" style="shape-rendering:geometricPrecision; text-rendering:geometricPrecision; image-rendering:optimizeQuality; fill-rule:evenodd; clip-rule:evenodd" xmlns:xlink="http://www.w3.org/1999/xlink">
<g><path style="opacity:1" fill="#fabe1f" d="M 133.5,-0.5 C 727.167,-0.5 1320.83,-0.5 1914.5,-0.5C 1989.83,12.8333 2034.17,57.1667 2047.5,132.5C 2047.5,726.5 2047.5,1320.5 2047.5,1914.5C 2034.17,1989.83 1989.83,2034.17 1914.5,2047.5C 1320.5,2047.5 726.5,2047.5 132.5,2047.5C 69.9111,2037.78 27.7445,2003.11 6,1943.5C 3.32272,1933.81 1.15605,1924.14 -0.5,1914.5C -0.5,1320.5 -0.5,726.5 -0.5,132.5C 12.9599,56.7068 57.6265,12.3734 133.5,-0.5 Z"/></g>
<g><path style="opacity:1" fill="#e1ab1c" d="M 1286.5,583.5 C 1249.3,575.978 1214.64,582.145 1182.5,602C 1156.59,621.963 1140.42,648.13 1134,680.5C 1128.96,712.944 1129.63,745.278 1136,777.5C 1149.16,828.322 1181.66,857.822 1233.5,866C 1260.03,869.347 1286.03,867.014 1311.5,859C 1337.15,848.013 1355.49,829.679 1366.5,804C 1360.12,799.3 1353.45,794.967 1346.5,791C 1342.87,787.998 1338.87,787.165 1334.5,788.5C 1321.26,815.969 1299.26,830.136 1268.5,831C 1240.94,833.996 1217.11,826.163 1197,807.5C 1186.89,795.604 1180.22,781.937 1177,766.5C 1174.7,755.618 1173.53,744.618 1173.5,733.5C 1237.17,733.667 1300.83,733.5 1364.5,733C 1367.56,731.934 1369.06,729.767 1369,726.5C 1369.82,711.092 1369.65,695.759 1368.5,680.5C 1393.09,683.489 1417.75,685.823 1442.5,687.5C 1442.17,746.002 1442.5,804.336 1443.5,862.5C 1444.17,862.5 1444.83,862.5 1445.5,862.5C 1332.52,1004.48 1219.52,1146.48 1106.5,1288.5C 1102.17,1288.5 1097.83,1288.5 1093.5,1288.5C 1093.5,1266.17 1093.5,1243.83 1093.5,1221.5C 1079.17,1221.5 1064.83,1221.5 1050.5,1221.5C 1050.5,1243.83 1050.5,1266.17 1050.5,1288.5C 1036.5,1288.5 1022.5,1288.5 1008.5,1288.5C 1008.5,1300.5 1008.5,1312.5 1008.5,1324.5C 1022.5,1324.5 1036.5,1324.5 1050.5,1324.5C 1050.5,1335.83 1050.5,1347.17 1050.5,1358.5C 1018.35,1398.76 986.186,1439.1 954,1479.5C 953.832,1509.34 953.332,1539 952.5,1568.5C 952.5,1475.17 952.5,1381.83 952.5,1288.5C 938.5,1288.5 924.5,1288.5 910.5,1288.5C 910.667,1346.17 910.5,1403.83 910,1461.5C 906.06,1496.44 887.227,1518.94 853.5,1529C 828.241,1534.57 807.075,1527.73 790,1508.5C 782.308,1497.74 777.975,1485.74 777,1472.5C 776.5,1460.84 776.333,1449.17 776.5,1437.5C 827.797,1284.61 879.131,1131.61 930.5,978.5C 789.529,965.78 648.529,953.447 507.5,941.5C 518.972,915.083 530.639,888.75 542.5,862.5C 554.167,862.5 565.833,862.5 577.5,862.5C 577.5,837.5 577.5,812.5 577.5,787.5C 604.07,730.689 630.403,673.689 656.5,616.5C 694.517,613.047 716.017,630.047 721,667.5C 721.5,732.499 721.667,797.499 721.5,862.5C 735.167,862.5 748.833,862.5 762.5,862.5C 762.667,797.499 762.5,732.499 762,667.5C 761.394,646.727 755.394,627.727 744,610.5C 730.781,594.969 713.947,585.802 693.5,583C 680.535,581.701 667.535,581.201 654.5,581.5C 660.901,580.816 667.401,580.15 674,579.5C 746.167,423.167 818.333,266.833 890.5,110.5C 892.667,110.167 894.833,109.833 897,109.5C 1117.53,128.785 1338.03,148.451 1558.5,168.5C 1467.56,306.719 1376.9,445.053 1286.5,583.5 Z"/></g>
<g><path style="opacity:1" fill="#000000" d="M 389.5,496.5 C 403.5,496.5 417.5,496.5 431.5,496.5C 431.5,618.5 431.5,740.5 431.5,862.5C 417.5,862.5 403.5,862.5 389.5,862.5C 389.5,740.5 389.5,618.5 389.5,496.5 Z"/></g>
<g><path style="opacity:1" fill="#241c07" d="M 389.5,496.5 C 403.657,495.504 417.99,495.171 432.5,495.5C 432.833,618.001 432.5,740.334 431.5,862.5C 431.5,740.5 431.5,618.5 431.5,496.5C 417.5,496.5 403.5,496.5 389.5,496.5 Z"/></g>
<g><path style="opacity:1" fill="#020100" d="M 654.5,581.5 C 667.535,581.201 680.535,581.701 693.5,583C 713.947,585.802 730.781,594.969 744,610.5C 755.394,627.727 761.394,646.727 762,667.5C 762.5,732.499 762.667,797.499 762.5,862.5C 748.833,862.5 735.167,862.5 721.5,862.5C 721.667,797.499 721.5,732.499 721,667.5C 716.017,630.047 694.517,613.047 656.5,616.5C 614.451,619.704 588.951,642.038 580,683.5C 579.24,687.819 578.573,692.152 578,696.5C 577.5,726.832 577.333,757.165 577.5,787.5C 577.5,812.5 577.5,837.5 577.5,862.5C 565.833,862.5 554.167,862.5 542.5,862.5C 540.5,862.5 538.5,862.5 536.5,862.5C 536.5,770.5 536.5,678.5 536.5,586.5C 549.167,586.5 561.833,586.5 574.5,586.5C 574.171,601.01 574.504,615.343 575.5,629.5C 577.137,630.218 578.803,630.384 580.5,630C 597.108,601.53 621.775,585.363 654.5,581.5 Z"/></g>
<g><path style="opacity:1" fill="#010000" d="M 1286.5,583.5 C 1337.59,595.597 1364.92,627.931 1368.5,680.5C 1369.65,695.759 1369.82,711.092 1369,726.5C 1369.06,729.767 1367.56,731.934 1364.5,733C 1300.83,733.5 1237.17,733.667 1173.5,733.5C 1173.53,744.618 1174.7,755.618 1177,766.5C 1180.22,781.937 1186.89,795.604 1197,807.5C 1217.11,826.163 1240.94,833.996 1268.5,831C 1299.26,830.136 1321.26,815.969 1334.5,788.5C 1338.87,787.165 1342.87,787.998 1346.5,791C 1353.45,794.967 1360.12,799.3 1366.5,804C 1355.49,829.679 1337.15,848.013 1311.5,859C 1286.03,867.014 1260.03,869.347 1233.5,866C 1181.66,857.822 1149.16,828.322 1136,777.5C 1129.63,745.278 1128.96,712.944 1134,680.5C 1140.42,648.13 1156.59,621.963 1182.5,602C 1214.64,582.145 1249.3,575.978 1286.5,583.5 Z"/></g>
<g><path style="opacity:1" fill="#010000" d="M 1486.5,687.5 C 1485.08,692.602 1484.25,697.936 1484,703.5C 1483.5,756.499 1483.33,809.499 1483.5,862.5C 1470.83,862.5 1458.17,862.5 1445.5,862.5C 1444.83,862.5 1444.17,862.5 1443.5,862.5C 1443.5,770.5 1443.5,678.5 1443.5,586.5C 1456.17,586.5 1468.83,586.5 1481.5,586.5C 1481.17,600.849 1481.5,615.182 1482.5,629.5C 1483.45,629.987 1484.45,630.32 1485.5,630.5C 1490.98,623.578 1496.48,616.578 1502,609.5C 1526.69,585.608 1556.19,576.441 1590.5,582C 1634.51,585.336 1660.01,608.836 1667,652.5C 1667.97,658.13 1668.63,663.796 1669,669.5C 1669.5,733.832 1669.67,798.166 1669.5,862.5C 1655.83,862.5 1642.17,862.5 1628.5,862.5C 1628.67,798.499 1628.5,734.499 1628,670.5C 1627.72,651.593 1620.22,636.426 1605.5,625C 1599.85,621.754 1593.85,619.421 1587.5,618C 1560.31,612.37 1535.64,617.703 1513.5,634C 1498,648.506 1489,666.34 1486.5,687.5 Z"/></g>
<g><path style="opacity:1" fill="#71550e" d="M 1043.5,586.5 C 1057.67,585.174 1072.01,585.174 1086.5,586.5C 1086.38,587.107 1086.04,587.44 1085.5,587.5C 1071.68,586.504 1057.68,586.171 1043.5,586.5 Z"/></g>
<g><path style="opacity:1" fill="#6e540d" d="M 536.5,586.5 C 549.323,585.505 562.323,585.171 575.5,585.5C 575.5,600.167 575.5,614.833 575.5,629.5C 574.504,615.343 574.171,601.01 574.5,586.5C 561.833,586.5 549.167,586.5 536.5,586.5 Z"/></g>
<g><path style="opacity:1" fill="#010000" d="M 1043.5,586.5 C 1057.68,586.171 1071.68,586.504 1085.5,587.5C 1051.04,678.888 1016.37,770.221 981.5,861.5C 962.833,862.833 944.167,862.833 925.5,861.5C 890.397,770.022 855.397,678.522 820.5,587C 835.178,586.167 849.845,586.334 864.5,587.5C 893.628,663.383 922.461,739.383 951,815.5C 953.041,816.423 955.208,816.756 957.5,816.5C 985.596,739.538 1014.26,662.871 1043.5,586.5 Z"/></g>
<g><path style="opacity:1" fill="#e1ab1c" d="M 1264.5,615.5 C 1253.09,633.31 1241.43,650.976 1229.5,668.5C 1261.82,671.56 1294.16,674.56 1326.5,677.5C 1326.5,676.167 1326.5,674.833 1326.5,673.5C 1328.51,681.911 1329.51,690.578 1329.5,699.5C 1277.83,699.5 1226.17,699.5 1174.5,699.5C 1175.48,675.038 1183.82,653.538 1199.5,635C 1218.22,619.154 1239.88,612.654 1264.5,615.5 Z"/></g>
<g><path style="opacity:1" fill="#f9be1f" d="M 1264.5,615.5 C 1300.29,618.624 1320.96,637.957 1326.5,673.5C 1326.5,674.833 1326.5,676.167 1326.5,677.5C 1294.16,674.56 1261.82,671.56 1229.5,668.5C 1241.43,650.976 1253.09,633.31 1264.5,615.5 Z"/></g>
<g><path style="opacity:1" fill="#f9be1f" d="M 656.5,616.5 C 630.403,673.689 604.07,730.689 577.5,787.5C 577.333,757.165 577.5,726.832 578,696.5C 578.573,692.152 579.24,687.819 580,683.5C 588.951,642.038 614.451,619.704 656.5,616.5 Z"/></g>
<g><path style="opacity:1" fill="#503c0a" d="M 1481.5,586.5 C 1468.83,586.5 1456.17,586.5 1443.5,586.5C 1443.5,678.5 1443.5,770.5 1443.5,862.5C 1442.5,804.336 1442.17,746.002 1442.5,687.5C 1442.5,653.5 1442.5,619.5 1442.5,585.5C 1455.68,585.171 1468.68,585.505 1481.5,586.5 Z"/></g>
<g><path style="opacity:1" fill="#e0ab1c" d="M 1486.5,687.5 C 1486.23,689.451 1486.89,690.951 1488.5,692C 1516.49,694.498 1544.49,696.832 1572.5,699C 1573.62,699.249 1574.62,699.749 1575.5,700.5C 1545.52,738.311 1515.36,775.978 1485,813.5C 1484.83,830.005 1484.33,846.338 1483.5,862.5C 1483.33,809.499 1483.5,756.499 1484,703.5C 1484.25,697.936 1485.08,692.602 1486.5,687.5 Z"/></g>
<g><path style="opacity:1" fill="#000000" d="M 389.5,1195.5 C 482.5,1195.5 575.5,1195.5 668.5,1195.5C 668.5,1208.5 668.5,1221.5 668.5,1234.5C 629.33,1234.17 590.33,1234.5 551.5,1235.5C 551.5,1346.5 551.5,1457.5 551.5,1568.5C 536.5,1568.5 521.5,1568.5 506.5,1568.5C 506.5,1457.17 506.5,1345.83 506.5,1234.5C 467.5,1234.5 428.5,1234.5 389.5,1234.5C 389.5,1221.5 389.5,1208.5 389.5,1195.5 Z"/></g>
<g><path style="opacity:1" fill="#5d470d" d="M 389.5,1195.5 C 482.665,1194.5 575.999,1194.17 669.5,1194.5C 669.5,1208.17 669.5,1221.83 669.5,1235.5C 630.167,1235.5 590.833,1235.5 551.5,1235.5C 590.33,1234.5 629.33,1234.17 668.5,1234.5C 668.5,1221.5 668.5,1208.5 668.5,1195.5C 575.5,1195.5 482.5,1195.5 389.5,1195.5 Z"/></g>
<g><path style="opacity:1" fill="#020100" d="M 1106.5,1288.5 C 1122.17,1288.5 1137.83,1288.5 1153.5,1288.5C 1153.5,1300.5 1153.5,1312.5 1153.5,1324.5C 1133.5,1324.5 1113.5,1324.5 1093.5,1324.5C 1093.17,1382.34 1093.5,1440 1094.5,1497.5C 1095.13,1515.96 1104.47,1526.79 1122.5,1530C 1131.91,1530.79 1141.25,1530.29 1150.5,1528.5C 1153.01,1541.54 1155.68,1554.54 1158.5,1567.5C 1128.61,1577.41 1100.94,1573.24 1075.5,1555C 1059.13,1541.42 1050.96,1523.92 1051,1502.5C 1050.5,1454.5 1050.33,1406.5 1050.5,1358.5C 1050.5,1347.17 1050.5,1335.83 1050.5,1324.5C 1036.5,1324.5 1022.5,1324.5 1008.5,1324.5C 1008.5,1312.5 1008.5,1300.5 1008.5,1288.5C 1022.5,1288.5 1036.5,1288.5 1050.5,1288.5C 1050.5,1266.17 1050.5,1243.83 1050.5,1221.5C 1064.83,1221.5 1079.17,1221.5 1093.5,1221.5C 1093.5,1243.83 1093.5,1266.17 1093.5,1288.5C 1097.83,1288.5 1102.17,1288.5 1106.5,1288.5 Z"/></g>
<g><path style="opacity:1" fill="#020100" d="M 1627.5,1284.5 C 1638.21,1284.19 1648.88,1284.69 1659.5,1286C 1666.57,1287.37 1672.57,1290.53 1677.5,1295.5C 1673.2,1307.42 1668.37,1319.09 1663,1330.5C 1631.22,1320.11 1603.89,1327.11 1581,1351.5C 1575.39,1359.4 1571.39,1368.06 1569,1377.5C 1568.5,1441.17 1568.33,1504.83 1568.5,1568.5C 1554.17,1568.5 1539.83,1568.5 1525.5,1568.5C 1525.5,1475.17 1525.5,1381.83 1525.5,1288.5C 1539.17,1288.5 1552.83,1288.5 1566.5,1288.5C 1566.5,1302.5 1566.5,1316.5 1566.5,1330.5C 1567.82,1330.67 1568.99,1330.34 1570,1329.5C 1577.9,1310.6 1591.4,1297.44 1610.5,1290C 1616.29,1288.22 1621.96,1286.39 1627.5,1284.5 Z"/></g>
<g><path style="opacity:1" fill="#020100" d="M 1321.5,1284.5 C 1381.93,1282.11 1424.1,1308.44 1448,1363.5C 1464.05,1410.18 1463.05,1456.52 1445,1502.5C 1417.48,1556.52 1373.31,1580.02 1312.5,1573C 1267.48,1565.31 1235.98,1540.48 1218,1498.5C 1202.67,1455.5 1201.67,1412.16 1215,1368.5C 1233.37,1318.61 1268.87,1290.61 1321.5,1284.5 Z"/></g>
<g><path style="opacity:1" fill="#000000" d="M 776.5,1437.5 C 776.333,1449.17 776.5,1460.84 777,1472.5C 777.975,1485.74 782.308,1497.74 790,1508.5C 807.075,1527.73 828.241,1534.57 853.5,1529C 887.227,1518.94 906.06,1496.44 910,1461.5C 910.5,1403.83 910.667,1346.17 910.5,1288.5C 924.5,1288.5 938.5,1288.5 952.5,1288.5C 952.5,1381.83 952.5,1475.17 952.5,1568.5C 938.5,1568.5 924.5,1568.5 910.5,1568.5C 910.5,1552.83 910.5,1537.17 910.5,1521.5C 909.022,1521.24 907.689,1521.57 906.5,1522.5C 888.836,1555.92 861.003,1572.59 823,1572.5C 788.594,1571.73 762.761,1556.73 745.5,1527.5C 738.908,1512.55 735.074,1496.88 734,1480.5C 733.5,1416.5 733.333,1352.5 733.5,1288.5C 747.833,1288.5 762.167,1288.5 776.5,1288.5C 776.5,1338.17 776.5,1387.83 776.5,1437.5 Z"/></g>
<g><path style="opacity:1" fill="#fabe1f" d="M 1320.5,1323.5 C 1359.98,1319.98 1388.14,1335.98 1405,1371.5C 1421.18,1412.95 1420.18,1453.95 1402,1494.5C 1383.41,1526.54 1355.57,1540.04 1318.5,1535C 1291.52,1530.36 1272.35,1515.53 1261,1490.5C 1244.05,1449.02 1244.38,1407.69 1262,1366.5C 1268.34,1355.16 1276.51,1345.32 1286.5,1337C 1296.87,1329.83 1308.2,1325.33 1320.5,1323.5 Z"/></g>
<g><path style="opacity:1" fill="#886711" d="M 1153.5,1324.5 C 1134.01,1325.5 1114.34,1325.83 1094.5,1325.5C 1094.5,1382.83 1094.5,1440.17 1094.5,1497.5C 1093.5,1440 1093.17,1382.34 1093.5,1324.5C 1113.5,1324.5 1133.5,1324.5 1153.5,1324.5 Z"/></g>
<g><path style="opacity:1" fill="#e1ab1c" d="M 910.5,1568.5 C 909.67,1557.67 909.17,1546.67 909,1535.5C 815.38,1653.46 721.38,1771.12 627,1888.5C 665.894,1769.82 705.227,1651.15 745,1532.5C 745.494,1530.87 745.66,1529.2 745.5,1527.5C 762.761,1556.73 788.594,1571.73 823,1572.5C 861.003,1572.59 888.836,1555.92 906.5,1522.5C 907.689,1521.57 909.022,1521.24 910.5,1521.5C 910.5,1537.17 910.5,1552.83 910.5,1568.5 Z"/></g>
</svg>
